<svg width="675" height="213" viewBox="0 0 675 213" fill="none" xmlns="http://www.w3.org/2000/svg">
<path d="M28.224 15.088V40H24.948V21.424L16.668 40H14.364L6.048 21.388V40H2.772V15.088H6.3L15.516 35.68L24.732 15.088H28.224ZM32.5558 30.064C32.5558 28.048 32.9638 26.284 33.7798 24.772C34.5958 23.236 35.7118 22.048 37.1278 21.208C38.5678 20.368 40.1638 19.948 41.9158 19.948C43.6438 19.948 45.1438 20.32 46.4158 21.064C47.6878 21.808 48.6358 22.744 49.2598 23.872V20.272H52.5718V40H49.2598V36.328C48.6118 37.48 47.6398 38.44 46.3438 39.208C45.0718 39.952 43.5838 40.324 41.8798 40.324C40.1278 40.324 38.5438 39.892 37.1278 39.028C35.7118 38.164 34.5958 36.952 33.7798 35.392C32.9638 33.832 32.5558 32.056 32.5558 30.064ZM49.2598 30.1C49.2598 28.612 48.9598 27.316 48.3598 26.212C47.7598 25.108 46.9438 24.268 45.9118 23.692C44.9038 23.092 43.7878 22.792 42.5638 22.792C41.3398 22.792 40.2238 23.08 39.2158 23.656C38.2078 24.232 37.4038 25.072 36.8038 26.176C36.2038 27.28 35.9038 28.576 35.9038 30.064C35.9038 31.576 36.2038 32.896 36.8038 34.024C37.4038 35.128 38.2078 35.98 39.2158 36.58C40.2238 37.156 41.3398 37.444 42.5638 37.444C43.7878 37.444 44.9038 37.156 45.9118 36.58C46.9438 35.98 47.7598 35.128 48.3598 34.024C48.9598 32.896 49.2598 31.588 49.2598 30.1ZM69.1239 40L61.3839 31.288V40H58.1079V13.36H61.3839V29.02L68.9799 20.272H73.5519L64.2639 30.1L73.5879 40H69.1239ZM94.6353 29.38C94.6353 30.004 94.5993 30.664 94.5273 31.36H78.7593C78.8793 33.304 79.5393 34.828 80.7393 35.932C81.9633 37.012 83.4393 37.552 85.1673 37.552C86.5833 37.552 87.7593 37.228 88.6953 36.58C89.6553 35.908 90.3273 35.02 90.7113 33.916H94.2393C93.7113 35.812 92.6553 37.36 91.0713 38.56C89.4873 39.736 87.5193 40.324 85.1673 40.324C83.2953 40.324 81.6153 39.904 80.1273 39.064C78.6633 38.224 77.5113 37.036 76.6713 35.5C75.8313 33.94 75.4113 32.14 75.4113 30.1C75.4113 28.06 75.8193 26.272 76.6353 24.736C77.4513 23.2 78.5913 22.024 80.0553 21.208C81.5433 20.368 83.2473 19.948 85.1673 19.948C87.0393 19.948 88.6953 20.356 90.1353 21.172C91.5753 21.988 92.6793 23.116 93.4473 24.556C94.2393 25.972 94.6353 27.58 94.6353 29.38ZM91.2513 28.696C91.2513 27.448 90.9753 26.38 90.4233 25.492C89.8713 24.58 89.1153 23.896 88.1553 23.44C87.2193 22.96 86.1753 22.72 85.0233 22.72C83.3673 22.72 81.9513 23.248 80.7753 24.304C79.6233 25.36 78.9633 26.824 78.7953 28.696H91.2513ZM126.125 14.908L117.953 30.532V40H114.677V30.532L106.469 14.908H110.105L116.297 27.616L122.489 14.908H126.125ZM138.185 40.324C136.337 40.324 134.657 39.904 133.145 39.064C131.657 38.224 130.481 37.036 129.617 35.5C128.777 33.94 128.357 32.14 128.357 30.1C128.357 28.084 128.789 26.308 129.653 24.772C130.541 23.212 131.741 22.024 133.253 21.208C134.765 20.368 136.457 19.948 138.329 19.948C140.201 19.948 141.893 20.368 143.405 21.208C144.917 22.024 146.105 23.2 146.969 24.736C147.857 26.272 148.301 28.06 148.301 30.1C148.301 32.14 147.845 33.94 146.933 35.5C146.045 37.036 144.833 38.224 143.297 39.064C141.761 39.904 140.057 40.324 138.185 40.324ZM138.185 37.444C139.361 37.444 140.465 37.168 141.497 36.616C142.529 36.064 143.357 35.236 143.981 34.132C144.629 33.028 144.953 31.684 144.953 30.1C144.953 28.516 144.641 27.172 144.017 26.068C143.393 24.964 142.577 24.148 141.569 23.62C140.561 23.068 139.469 22.792 138.293 22.792C137.093 22.792 135.989 23.068 134.981 23.62C133.997 24.148 133.205 24.964 132.605 26.068C132.005 27.172 131.705 28.516 131.705 30.1C131.705 31.708 131.993 33.064 132.569 34.168C133.169 35.272 133.961 36.1 134.945 36.652C135.929 37.18 137.009 37.444 138.185 37.444ZM170.104 20.272V40H166.828V37.084C166.204 38.092 165.328 38.884 164.2 39.46C163.096 40.012 161.872 40.288 160.528 40.288C158.992 40.288 157.612 39.976 156.388 39.352C155.164 38.704 154.192 37.744 153.472 36.472C152.776 35.2 152.428 33.652 152.428 31.828V20.272H155.668V31.396C155.668 33.34 156.16 34.84 157.144 35.896C158.128 36.928 159.472 37.444 161.176 37.444C162.928 37.444 164.308 36.904 165.316 35.824C166.324 34.744 166.828 33.172 166.828 31.108V20.272H170.104ZM178.911 23.476C179.487 22.348 180.303 21.472 181.359 20.848C182.439 20.224 183.747 19.912 185.283 19.912V23.296H184.419C180.747 23.296 178.911 25.288 178.911 29.272V40H175.635V20.272H178.911V23.476ZM201.939 14.908V40H198.663V14.908H201.939ZM217.134 19.912C219.534 19.912 221.478 20.644 222.966 22.108C224.454 23.548 225.198 25.636 225.198 28.372V40H221.958V28.84C221.958 26.872 221.466 25.372 220.482 24.34C219.498 23.284 218.154 22.756 216.45 22.756C214.722 22.756 213.342 23.296 212.31 24.376C211.302 25.456 210.798 27.028 210.798 29.092V40H207.522V20.272H210.798V23.08C211.446 22.072 212.322 21.292 213.426 20.74C214.554 20.188 215.79 19.912 217.134 19.912ZM234.545 22.972V34.6C234.545 35.56 234.749 36.244 235.157 36.652C235.565 37.036 236.273 37.228 237.281 37.228H239.693V40H236.741C234.917 40 233.549 39.58 232.637 38.74C231.725 37.9 231.269 36.52 231.269 34.6V22.972H228.713V20.272H231.269V15.304H234.545V20.272H239.693V22.972H234.545ZM261.663 29.38C261.663 30.004 261.627 30.664 261.555 31.36H245.787C245.907 33.304 246.567 34.828 247.767 35.932C248.991 37.012 250.467 37.552 252.195 37.552C253.611 37.552 254.787 37.228 255.723 36.58C256.683 35.908 257.355 35.02 257.739 33.916H261.267C260.739 35.812 259.683 37.36 258.099 38.56C256.515 39.736 254.547 40.324 252.195 40.324C250.323 40.324 248.643 39.904 247.155 39.064C245.691 38.224 244.539 37.036 243.699 35.5C242.859 33.94 242.439 32.14 242.439 30.1C242.439 28.06 242.847 26.272 243.663 24.736C244.479 23.2 245.619 22.024 247.083 21.208C248.571 20.368 250.275 19.948 252.195 19.948C254.067 19.948 255.723 20.356 257.163 21.172C258.603 21.988 259.707 23.116 260.475 24.556C261.267 25.972 261.663 27.58 261.663 29.38ZM258.279 28.696C258.279 27.448 258.003 26.38 257.451 25.492C256.899 24.58 256.143 23.896 255.183 23.44C254.247 22.96 253.203 22.72 252.051 22.72C250.395 22.72 248.979 23.248 247.803 24.304C246.651 25.36 245.991 26.824 245.823 28.696H258.279ZM269.263 23.476C269.839 22.348 270.655 21.472 271.711 20.848C272.791 20.224 274.099 19.912 275.635 19.912V23.296H274.771C271.099 23.296 269.263 25.288 269.263 29.272V40H265.987V20.272H269.263V23.476ZM286.761 36.976L292.881 20.272H296.373L288.633 40H284.817L277.077 20.272H280.605L286.761 36.976ZM301.288 17.068C300.664 17.068 300.136 16.852 299.704 16.42C299.272 15.988 299.056 15.46 299.056 14.836C299.056 14.212 299.272 13.684 299.704 13.252C300.136 12.82 300.664 12.604 301.288 12.604C301.888 12.604 302.392 12.82 302.8 13.252C303.232 13.684 303.448 14.212 303.448 14.836C303.448 15.46 303.232 15.988 302.8 16.42C302.392 16.852 301.888 17.068 301.288 17.068ZM302.872 20.272V40H299.596V20.272H302.872ZM326.456 29.38C326.456 30.004 326.42 30.664 326.348 31.36H310.58C310.7 33.304 311.36 34.828 312.56 35.932C313.784 37.012 315.26 37.552 316.988 37.552C318.404 37.552 319.58 37.228 320.516 36.58C321.476 35.908 322.148 35.02 322.532 33.916H326.06C325.532 35.812 324.476 37.36 322.892 38.56C321.308 39.736 319.34 40.324 316.988 40.324C315.116 40.324 313.436 39.904 311.948 39.064C310.484 38.224 309.332 37.036 308.492 35.5C307.652 33.94 307.232 32.14 307.232 30.1C307.232 28.06 307.64 26.272 308.456 24.736C309.272 23.2 310.412 22.024 311.876 21.208C313.364 20.368 315.068 19.948 316.988 19.948C318.86 19.948 320.516 20.356 321.956 21.172C323.396 21.988 324.5 23.116 325.268 24.556C326.06 25.972 326.456 27.58 326.456 29.38ZM323.072 28.696C323.072 27.448 322.796 26.38 322.244 25.492C321.692 24.58 320.936 23.896 319.976 23.44C319.04 22.96 317.996 22.72 316.844 22.72C315.188 22.72 313.772 23.248 312.596 24.304C311.444 25.36 310.784 26.824 310.616 28.696H323.072ZM357.06 20.272L350.904 40H347.52L342.768 24.34L338.016 40H334.632L328.44 20.272H331.788L336.324 36.832L341.22 20.272H344.568L349.356 36.868L353.82 20.272H357.06ZM367.295 40.324C365.783 40.324 364.427 40.072 363.227 39.568C362.027 39.04 361.079 38.32 360.383 37.408C359.687 36.472 359.303 35.404 359.231 34.204H362.615C362.711 35.188 363.167 35.992 363.983 36.616C364.823 37.24 365.915 37.552 367.259 37.552C368.507 37.552 369.491 37.276 370.211 36.724C370.931 36.172 371.291 35.476 371.291 34.636C371.291 33.772 370.907 33.136 370.139 32.728C369.371 32.296 368.183 31.876 366.575 31.468C365.111 31.084 363.911 30.7 362.975 30.316C362.063 29.908 361.271 29.32 360.599 28.552C359.951 27.76 359.627 26.728 359.627 25.456C359.627 24.448 359.927 23.524 360.527 22.684C361.127 21.844 361.979 21.184 363.083 20.704C364.187 20.2 365.447 19.948 366.863 19.948C369.047 19.948 370.811 20.5 372.155 21.604C373.499 22.708 374.219 24.22 374.315 26.14H371.039C370.967 25.108 370.547 24.28 369.779 23.656C369.035 23.032 368.027 22.72 366.755 22.72C365.579 22.72 364.643 22.972 363.947 23.476C363.251 23.98 362.903 24.64 362.903 25.456C362.903 26.104 363.107 26.644 363.515 27.076C363.947 27.484 364.475 27.82 365.099 28.084C365.747 28.324 366.635 28.6 367.763 28.912C369.179 29.296 370.331 29.68 371.219 30.064C372.107 30.424 372.863 30.976 373.487 31.72C374.135 32.464 374.471 33.436 374.495 34.636C374.495 35.716 374.195 36.688 373.595 37.552C372.995 38.416 372.143 39.1 371.039 39.604C369.959 40.084 368.711 40.324 367.295 40.324ZM382.504 35.464L378.472 45.148H376.276L378.904 35.464H382.504ZM403.81 40.252C402.154 40.252 400.666 39.964 399.346 39.388C398.05 38.788 397.03 37.972 396.286 36.94C395.542 35.884 395.158 34.672 395.134 33.304H398.626C398.746 34.48 399.226 35.476 400.066 36.292C400.93 37.084 402.178 37.48 403.81 37.48C405.37 37.48 406.594 37.096 407.482 36.328C408.394 35.536 408.85 34.528 408.85 33.304C408.85 32.344 408.586 31.564 408.058 30.964C407.53 30.364 406.87 29.908 406.078 29.596C405.286 29.284 404.218 28.948 402.874 28.588C401.218 28.156 399.886 27.724 398.878 27.292C397.894 26.86 397.042 26.188 396.322 25.276C395.626 24.34 395.278 23.092 395.278 21.532C395.278 20.164 395.626 18.952 396.322 17.896C397.018 16.84 397.99 16.024 399.238 15.448C400.51 14.872 401.962 14.584 403.594 14.584C405.946 14.584 407.866 15.172 409.354 16.348C410.866 17.524 411.718 19.084 411.91 21.028H408.31C408.19 20.068 407.686 19.228 406.798 18.508C405.91 17.764 404.734 17.392 403.27 17.392C401.902 17.392 400.786 17.752 399.922 18.472C399.058 19.168 398.626 20.152 398.626 21.424C398.626 22.336 398.878 23.08 399.382 23.656C399.91 24.232 400.546 24.676 401.29 24.988C402.058 25.276 403.126 25.612 404.494 25.996C406.15 26.452 407.482 26.908 408.49 27.364C409.498 27.796 410.362 28.48 411.082 29.416C411.802 30.328 412.162 31.576 412.162 33.16C412.162 34.384 411.838 35.536 411.19 36.616C410.542 37.696 409.582 38.572 408.31 39.244C407.038 39.916 405.538 40.252 403.81 40.252ZM426.775 19.912C428.263 19.912 429.607 20.236 430.807 20.884C432.007 21.508 432.943 22.456 433.615 23.728C434.311 25 434.659 26.548 434.659 28.372V40H431.419V28.84C431.419 26.872 430.927 25.372 429.943 24.34C428.959 23.284 427.615 22.756 425.911 22.756C424.183 22.756 422.803 23.296 421.771 24.376C420.763 25.456 420.259 27.028 420.259 29.092V40H416.983V13.36H420.259V23.08C420.907 22.072 421.795 21.292 422.923 20.74C424.075 20.188 425.359 19.912 426.775 19.912ZM438.786 30.064C438.786 28.048 439.194 26.284 440.01 24.772C440.826 23.236 441.942 22.048 443.358 21.208C444.798 20.368 446.394 19.948 448.146 19.948C449.874 19.948 451.374 20.32 452.646 21.064C453.918 21.808 454.866 22.744 455.49 23.872V20.272H458.802V40H455.49V36.328C454.842 37.48 453.87 38.44 452.574 39.208C451.302 39.952 449.814 40.324 448.11 40.324C446.358 40.324 444.774 39.892 443.358 39.028C441.942 38.164 440.826 36.952 440.01 35.392C439.194 33.832 438.786 32.056 438.786 30.064ZM455.49 30.1C455.49 28.612 455.19 27.316 454.59 26.212C453.99 25.108 453.174 24.268 452.142 23.692C451.134 23.092 450.018 22.792 448.794 22.792C447.57 22.792 446.454 23.08 445.446 23.656C444.438 24.232 443.634 25.072 443.034 26.176C442.434 27.28 442.134 28.576 442.134 30.064C442.134 31.576 442.434 32.896 443.034 34.024C443.634 35.128 444.438 35.98 445.446 36.58C446.454 37.156 447.57 37.444 448.794 37.444C450.018 37.444 451.134 37.156 452.142 36.58C453.174 35.98 453.99 35.128 454.59 34.024C455.19 32.896 455.49 31.588 455.49 30.1ZM467.614 23.476C468.19 22.348 469.006 21.472 470.062 20.848C471.142 20.224 472.45 19.912 473.986 19.912V23.296H473.122C469.45 23.296 467.614 25.288 467.614 29.272V40H464.338V20.272H467.614V23.476ZM495.768 29.38C495.768 30.004 495.732 30.664 495.66 31.36H479.892C480.012 33.304 480.672 34.828 481.872 35.932C483.096 37.012 484.572 37.552 486.3 37.552C487.716 37.552 488.892 37.228 489.828 36.58C490.788 35.908 491.46 35.02 491.844 33.916H495.372C494.844 35.812 493.788 37.36 492.204 38.56C490.62 39.736 488.652 40.324 486.3 40.324C484.428 40.324 482.748 39.904 481.26 39.064C479.796 38.224 478.644 37.036 477.804 35.5C476.964 33.94 476.544 32.14 476.544 30.1C476.544 28.06 476.952 26.272 477.768 24.736C478.584 23.2 479.724 22.024 481.188 21.208C482.676 20.368 484.38 19.948 486.3 19.948C488.172 19.948 489.828 20.356 491.268 21.172C492.708 21.988 493.812 23.116 494.58 24.556C495.372 25.972 495.768 27.58 495.768 29.38ZM492.384 28.696C492.384 27.448 492.108 26.38 491.556 25.492C491.004 24.58 490.248 23.896 489.288 23.44C488.352 22.96 487.308 22.72 486.156 22.72C484.5 22.72 483.084 23.248 481.908 24.304C480.756 25.36 480.096 26.824 479.928 28.696H492.384ZM527.258 14.908L519.086 30.532V40H515.81V30.532L507.602 14.908H511.238L517.43 27.616L523.622 14.908H527.258ZM539.317 40.324C537.469 40.324 535.789 39.904 534.277 39.064C532.789 38.224 531.613 37.036 530.749 35.5C529.909 33.94 529.489 32.14 529.489 30.1C529.489 28.084 529.921 26.308 530.785 24.772C531.673 23.212 532.873 22.024 534.385 21.208C535.897 20.368 537.589 19.948 539.461 19.948C541.333 19.948 543.025 20.368 544.537 21.208C546.049 22.024 547.237 23.2 548.101 24.736C548.989 26.272 549.433 28.06 549.433 30.1C549.433 32.14 548.977 33.94 548.065 35.5C547.177 37.036 545.965 38.224 544.429 39.064C542.893 39.904 541.189 40.324 539.317 40.324ZM539.317 37.444C540.493 37.444 541.597 37.168 542.629 36.616C543.661 36.064 544.489 35.236 545.113 34.132C545.761 33.028 546.085 31.684 546.085 30.1C546.085 28.516 545.773 27.172 545.149 26.068C544.525 24.964 543.709 24.148 542.701 23.62C541.693 23.068 540.601 22.792 539.425 22.792C538.225 22.792 537.121 23.068 536.113 23.62C535.129 24.148 534.337 24.964 533.737 26.068C533.137 27.172 532.837 28.516 532.837 30.1C532.837 31.708 533.125 33.064 533.701 34.168C534.301 35.272 535.093 36.1 536.077 36.652C537.061 37.18 538.141 37.444 539.317 37.444ZM571.237 20.272V40H567.961V37.084C567.337 38.092 566.461 38.884 565.333 39.46C564.229 40.012 563.005 40.288 561.661 40.288C560.125 40.288 558.745 39.976 557.521 39.352C556.297 38.704 555.325 37.744 554.605 36.472C553.909 35.2 553.561 33.652 553.561 31.828V20.272H556.801V31.396C556.801 33.34 557.293 34.84 558.277 35.896C559.261 36.928 560.605 37.444 562.309 37.444C564.061 37.444 565.441 36.904 566.449 35.824C567.457 34.744 567.961 33.172 567.961 31.108V20.272H571.237ZM580.044 23.476C580.62 22.348 581.436 21.472 582.492 20.848C583.572 20.224 584.88 19.912 586.416 19.912V23.296H585.552C581.88 23.296 580.044 25.288 580.044 29.272V40H576.768V20.272H580.044V23.476ZM613.979 14.908V17.572H603.071V26.032H611.927V28.696H603.071V40H599.795V14.908H613.979ZM619.628 17.068C619.004 17.068 618.476 16.852 618.044 16.42C617.612 15.988 617.396 15.46 617.396 14.836C617.396 14.212 617.612 13.684 618.044 13.252C618.476 12.82 619.004 12.604 619.628 12.604C620.228 12.604 620.732 12.82 621.14 13.252C621.572 13.684 621.788 14.212 621.788 14.836C621.788 15.46 621.572 15.988 621.14 16.42C620.732 16.852 620.228 17.068 619.628 17.068ZM621.212 20.272V40H617.936V20.272H621.212ZM630.071 13.36V40H626.795V13.36H630.071ZM653.655 29.38C653.655 30.004 653.619 30.664 653.547 31.36H637.779C637.899 33.304 638.559 34.828 639.759 35.932C640.983 37.012 642.459 37.552 644.187 37.552C645.603 37.552 646.779 37.228 647.715 36.58C648.675 35.908 649.347 35.02 649.731 33.916H653.259C652.731 35.812 651.675 37.36 650.091 38.56C648.507 39.736 646.539 40.324 644.187 40.324C642.315 40.324 640.635 39.904 639.147 39.064C637.683 38.224 636.531 37.036 635.691 35.5C634.851 33.94 634.431 32.14 634.431 30.1C634.431 28.06 634.839 26.272 635.655 24.736C636.471 23.2 637.611 22.024 639.075 21.208C640.563 20.368 642.267 19.948 644.187 19.948C646.059 19.948 647.715 20.356 649.155 21.172C650.595 21.988 651.699 23.116 652.467 24.556C653.259 25.972 653.655 27.58 653.655 29.38ZM650.271 28.696C650.271 27.448 649.995 26.38 649.443 25.492C648.891 24.58 648.135 23.896 647.175 23.44C646.239 22.96 645.195 22.72 644.043 22.72C642.387 22.72 640.971 23.248 639.795 24.304C638.643 25.36 637.983 26.824 637.815 28.696H650.271ZM664.963 40.324C663.451 40.324 662.095 40.072 660.895 39.568C659.695 39.04 658.747 38.32 658.051 37.408C657.355 36.472 656.971 35.404 656.899 34.204H660.283C660.379 35.188 660.835 35.992 661.651 36.616C662.491 37.24 663.583 37.552 664.927 37.552C666.175 37.552 667.159 37.276 667.879 36.724C668.599 36.172 668.959 35.476 668.959 34.636C668.959 33.772 668.575 33.136 667.807 32.728C667.039 32.296 665.851 31.876 664.243 31.468C662.779 31.084 661.579 30.7 660.643 30.316C659.731 29.908 658.939 29.32 658.267 28.552C657.619 27.76 657.295 26.728 657.295 25.456C657.295 24.448 657.595 23.524 658.195 22.684C658.795 21.844 659.647 21.184 660.751 20.704C661.855 20.2 663.115 19.948 664.531 19.948C666.715 19.948 668.479 20.5 669.823 21.604C671.167 22.708 671.887 24.22 671.983 26.14H668.707C668.635 25.108 668.215 24.28 667.447 23.656C666.703 23.032 665.695 22.72 664.423 22.72C663.247 22.72 662.311 22.972 661.615 23.476C660.919 23.98 660.571 24.64 660.571 25.456C660.571 26.104 660.775 26.644 661.183 27.076C661.615 27.484 662.143 27.82 662.767 28.084C663.415 28.324 664.303 28.6 665.431 28.912C666.847 29.296 667.999 29.68 668.887 30.064C669.775 30.424 670.531 30.976 671.155 31.72C671.803 32.464 672.139 33.436 672.163 34.636C672.163 35.716 671.863 36.688 671.263 37.552C670.663 38.416 669.811 39.1 668.707 39.604C667.627 40.084 666.379 40.324 664.963 40.324Z" fill="#0E38B1"/>
<path fill-rule="evenodd" clip-rule="evenodd" d="M303.742 187.664C280.984 188.577 258.492 189.7 236.56 190.927C205.511 192.663 174.475 194.46 143.626 197.303C133.915 198.201 124.054 198.77 114.404 199.893C108.346 200.596 100.314 201.599 99.2596 201.808C98.7082 201.928 98.4677 202.108 98.3899 202.168C97.8434 202.587 97.9432 202.991 98.2516 203.305C98.3755 203.44 98.6887 203.769 99.5583 203.814C157.711 206.882 217.175 200.895 275.397 200.267C376.366 199.189 480.395 203.47 580.562 212.809C581.437 212.884 582.287 212.51 582.408 211.956C582.554 211.417 581.923 210.894 581.048 210.819C480.711 201.464 376.512 197.168 275.349 198.261C221.087 198.845 165.755 204.098 111.419 202.302C112.667 202.153 113.891 202.003 115.008 201.868C124.62 200.746 134.44 200.192 144.111 199.294C174.895 196.45 205.868 194.654 236.875 192.933C275.349 190.777 315.498 188.922 355.963 188.053C370.44 188.188 384.867 188.323 399.295 188.488C430.506 188.847 461.863 189.894 493.001 191.301C502.377 191.735 511.752 192.184 521.128 192.574C524.237 192.708 532.252 193.097 533.369 193.067C534.754 193.037 535.021 192.319 535.045 192.199C535.118 191.93 535.069 191.556 534.389 191.241C534.316 191.197 533.879 191.047 532.908 190.957C476.29 185.659 415.835 184.776 356.012 186.048C292.91 185.494 229.564 185.254 166.622 185C165.721 185 164.985 185.449 164.978 186.003C164.973 186.557 165.699 187.006 166.6 187.021C212.176 187.2 257.982 187.38 303.742 187.664Z" fill="#0E38B1"/>
<g clip-path="url(#clip0_186_32)">
<path fill-rule="evenodd" clip-rule="evenodd" d="M622.543 79.4805C620.981 78.9241 619.338 78.1845 618.071 77.1139C616.566 75.8422 615.954 74.2044 615.543 72.4805C615.015 70.2656 614.804 67.9062 614.164 65.6878C613.928 64.8639 613.472 64.5525 613.276 64.4143C612.781 64.0652 612.282 63.9719 611.811 64.0069C611.254 64.0473 610.489 64.2581 609.985 65.1924C609.913 65.3261 609.82 65.5298 609.757 65.8089C609.711 66.0135 609.682 66.6534 609.633 66.9172C609.512 67.567 609.411 68.2167 609.316 68.8701C608.999 71.0446 608.817 72.8915 607.816 74.8892C606.458 77.6012 605.098 79.2606 603.252 79.9956C601.468 80.7063 599.335 80.5726 596.61 80.0153C596.35 79.9525 596.094 79.8987 595.84 79.8547C594.638 79.6447 593.489 80.4335 593.253 81.6307C593.017 82.827 593.781 83.9928 594.972 84.2557C595.22 84.3104 595.465 84.3625 595.708 84.4101C599.391 85.3219 603.655 88.576 606.132 91.4253C606.896 92.3039 608.014 94.7602 609.155 96.3271C609.997 97.483 610.943 98.2449 611.737 98.5142C612.269 98.6954 612.718 98.6677 613.088 98.5761C613.627 98.4433 614.074 98.1516 614.417 97.6876C614.603 97.4336 614.777 97.0935 614.859 96.6592C614.899 96.4501 614.903 95.9188 614.902 95.6783C615.135 94.8787 615.419 94.0979 615.626 93.2911C616.121 91.3661 617.091 90.1474 618.243 88.5374C619.321 87.0306 620.479 86.0838 622.176 85.3281C622.397 85.2743 624.178 84.8381 624.807 84.5877C625.726 84.2207 626.164 83.6059 626.323 83.2748C626.593 82.713 626.621 82.2221 626.567 81.8129C626.487 81.2089 626.216 80.692 625.735 80.2747C625.437 80.0153 624.992 79.7631 624.396 79.6402C623.936 79.5442 622.714 79.4885 622.543 79.4805ZM612.092 76.343C612.01 76.527 611.922 76.7119 611.828 76.8985C609.84 80.8706 607.616 83.0881 604.913 84.1642L604.822 84.1992C606.63 85.5417 608.267 87.0422 609.518 88.4808C610.034 89.0731 610.716 90.3035 611.452 91.5653C612.122 89.3891 613.217 87.8509 614.593 85.9259C615.645 84.4567 616.747 83.3511 618.101 82.4501C617.051 81.9107 616.048 81.2789 615.175 80.5412C613.721 79.3126 612.76 77.8893 612.092 76.343Z" fill="#0E38B1"/>
</g>
<path fill-rule="evenodd" clip-rule="evenodd" d="M62.5063 99.5446C58.8897 97.3994 54.9437 95.7487 51.1079 94.1773C50.2809 93.8418 49.3277 94.2223 49.0426 95.0418C48.6962 95.8456 49.1027 96.7744 49.8685 97.0936C53.5872 98.6133 57.4186 100.2 60.8629 102.255C61.5958 102.697 62.578 102.455 63.0399 101.709C63.5016 100.963 63.239 99.9872 62.5063 99.5446Z" fill="#0E38B1"/>
<path fill-rule="evenodd" clip-rule="evenodd" d="M78.5288 87.1621C73.956 79.0531 68.3674 71.5579 63.963 63.3094C63.5781 62.5461 62.6093 62.2511 61.8442 62.6624C61.0789 63.0743 60.7587 64.0258 61.2047 64.8055C65.604 73.073 71.1877 80.5864 75.7554 88.7144C76.2053 89.4794 77.1805 89.7498 77.95 89.3221C78.6583 88.8785 78.9787 87.927 78.5288 87.1621Z" fill="#0E38B1"/>
<path fill-rule="evenodd" clip-rule="evenodd" d="M96.9419 65.6187C96.1403 69.3438 95.3383 73.0688 94.5364 76.7945C94.3108 77.6365 94.8702 78.4833 95.7366 78.6715C96.6032 78.8592 97.4059 78.3061 97.6317 77.4635C98.435 73.7322 99.2385 70.0017 100.042 66.2711C100.206 65.4127 99.6459 64.5703 98.7781 64.387C97.9715 64.2199 97.1063 64.7609 96.9419 65.6187Z" fill="#0E38B1"/>
<path d="M91.872 146.104C89.952 146.104 88.32 145.272 86.976 143.608C85.696 141.944 85.056 139.992 85.056 137.752C85.056 132.824 87.648 126.68 92.832 119.32C95.456 115.608 98.208 112.152 101.088 108.952C103.968 105.752 107.008 102.808 110.208 100.12C116.672 94.744 121.6 92.056 124.992 92.056C126.144 92.056 126.72 92.408 126.72 93.112C126.72 93.368 126.56 93.56 126.24 93.688C122.208 95.736 118.432 98.296 114.912 101.368C113.12 102.904 111.2 104.728 109.152 106.84C107.168 108.952 104.992 111.32 102.624 113.944C97.952 119.192 94.304 124.184 91.68 128.92C89.12 133.656 87.84 137.368 87.84 140.056C87.84 142.488 88.832 143.704 90.816 143.704C92.48 143.704 94.016 143.416 95.424 142.84C96.704 142.392 99.168 140.536 102.816 137.272C104.672 135.672 107.04 133.4 109.92 130.456C112.864 127.448 116.32 123.768 120.288 119.416C128.224 110.712 132.672 106.36 133.632 106.36C134.592 106.36 135.072 106.744 135.072 107.512C134.688 113.336 134.496 117.688 134.496 120.568C134.496 132.92 135.936 139.096 138.816 139.096C141.696 139.096 144.256 136.248 146.496 130.552C148.736 124.792 149.856 119.384 149.856 114.328C149.856 106.584 147.872 102.072 143.904 100.792C143.712 100.664 143.616 100.568 143.616 100.504C143.616 99.864 144.64 99.544 146.688 99.544C148.736 99.544 150.4 100.888 151.68 103.576C152.96 106.2 153.6 109.752 153.6 114.232C153.6 121.336 152.16 127.544 149.28 132.856C146.4 138.104 142.752 140.728 138.336 140.728C133.088 140.728 130.464 135.352 130.464 124.6C130.464 120.44 130.848 115.544 131.616 109.912C130.72 110.808 129.248 112.472 127.2 114.904C125.152 117.336 122.432 120.536 119.04 124.504C115.776 128.408 112.8 131.736 110.112 134.488C107.488 137.24 105.152 139.448 103.104 141.112C99.008 144.44 95.264 146.104 91.872 146.104ZM170.492 105.496C169.084 105.496 167.932 105.112 167.036 104.344C168.252 103.512 169.532 102.424 170.876 101.08C172.284 99.736 173.724 98.136 175.196 96.28C175.324 96.28 175.388 96.44 175.388 96.76L174.908 99.544C174.588 101.528 174.012 103.032 173.18 104.056C172.348 105.016 171.452 105.496 170.492 105.496ZM161.276 140.44C158.844 140.44 157.628 138.68 157.628 135.16C157.628 129.848 159.548 122.84 163.388 114.136C163.388 113.88 163.548 113.4 163.868 112.696C164.252 111.992 164.54 111.544 164.732 111.352C165.18 110.904 165.788 110.68 166.556 110.68C168.796 110.68 170.012 111.128 170.204 112.024C169.18 113.688 168.188 115.608 167.228 117.784C166.332 119.96 165.436 122.36 164.54 124.984C163.58 127.8 162.876 130.136 162.428 131.992C162.044 133.784 161.852 135.224 161.852 136.312C161.852 137.912 162.268 138.712 163.1 138.712C163.676 138.712 164.412 138.36 165.308 137.656C166.012 137.08 166.492 136.664 166.748 136.408C167.068 136.152 167.356 135.928 167.612 135.736C167.868 135.736 167.996 135.864 167.996 136.12C167.996 136.824 167.068 137.72 165.212 138.808C163.356 139.896 162.044 140.44 161.276 140.44ZM175.704 140.824C172.888 140.824 171.48 139.32 171.48 136.312C171.48 133.624 172.376 130.104 174.168 125.752C174.872 124.088 175.576 122.424 176.28 120.76C176.984 119.096 177.784 117.208 178.68 115.096C176.504 114.264 175.416 113.016 175.416 111.352C175.416 110.84 175.544 110.488 175.8 110.296C176.76 110.744 178.232 111.064 180.216 111.256C182.328 106.52 183.384 103.512 183.384 102.232C183.384 100.824 183.128 100.12 182.616 100.12L180.696 100.6C180.504 100.6 180.408 100.504 180.408 100.312C180.408 99.8 180.792 99.416 181.56 99.16C182.328 98.84 182.904 98.68 183.288 98.68C186.104 98.68 187.512 100.28 187.512 103.48C187.512 105.336 186.936 107.768 185.784 110.776C186.04 111.032 187.192 111.16 189.24 111.16C191.352 111.16 192.952 110.936 194.04 110.488C195.064 109.976 195.8 109.72 196.248 109.72C196.44 109.72 196.536 109.784 196.536 109.912C196.536 110.104 196.376 110.36 196.056 110.68C194.712 111.832 193.112 112.824 191.256 113.656C189.464 114.488 187.384 115.064 185.016 115.384H184.728C184.664 115.384 184.568 115.416 184.44 115.48C184.312 115.48 184.056 115.544 183.672 115.672C177.848 127.256 174.936 134.616 174.936 137.752C174.936 138.776 175.32 139.288 176.088 139.288L178.776 138.712L178.872 138.808C178.872 140.152 177.816 140.824 175.704 140.824ZM190.666 142.552C190.282 142.552 189.93 142.392 189.61 142.072C186.218 138.488 184.522 136.536 184.522 136.216C184.522 135.832 184.714 135.64 185.098 135.64H185.29C187.018 134.552 188.458 133.592 189.61 132.76C190.186 130.584 190.954 128.088 191.914 125.272C192.938 122.456 194.09 119.576 195.37 116.632L200.842 104.056C202.058 101.24 202.986 98.84 203.626 96.856C204.33 94.808 204.682 93.144 204.682 91.864C204.682 90.456 204.074 89.752 202.858 89.752L199.498 90.424C199.178 90.424 199.018 90.232 199.018 89.848C199.018 88.888 200.234 88.408 202.666 88.408C205.098 88.408 206.922 88.856 208.138 89.752C209.354 90.584 209.962 91.736 209.962 93.208C209.962 94.552 208.522 98.168 205.642 104.056L199.978 115.672L194.314 128.728C196.938 126.424 199.53 123.736 202.09 120.664C204.714 117.528 206.666 115.032 207.946 113.176C209.29 111.256 210.058 110.296 210.25 110.296H210.73C213.034 110.296 214.186 110.712 214.186 111.544C214.186 111.48 214.154 111.48 214.09 111.544C214.09 111.544 214.122 111.576 214.186 111.64V111.544C214.122 111.416 213.962 111.608 213.706 112.12C212.81 113.72 211.946 115.512 211.114 117.496C210.346 119.48 209.61 121.624 208.906 123.928C207.498 128.408 206.794 131.416 206.794 132.952C206.794 136.856 207.466 138.808 208.81 138.808C209.258 138.808 210.186 138.2 211.594 136.984C211.786 136.984 211.882 137.24 211.882 137.752C211.882 139.416 210.954 140.248 209.098 140.248C207.306 140.248 205.834 139.32 204.682 137.464C203.53 135.608 202.954 133.464 202.954 131.032C202.954 128.408 203.562 125.464 204.778 122.2C202.73 124.312 200.682 126.264 198.634 128.056C196.65 129.784 194.73 131.384 192.874 132.856C191.594 136.504 190.954 138.968 190.954 140.248V140.728C191.53 141.112 191.818 141.432 191.818 141.688C191.818 142.264 191.434 142.552 190.666 142.552ZM188.842 139.576C188.842 139.448 188.81 139.256 188.746 139C188.746 138.808 188.746 138.584 188.746 138.328C188.746 137.688 188.842 136.76 189.034 135.544C188.33 135.928 187.754 136.216 187.306 136.408C186.858 136.6 186.57 136.728 186.442 136.792C186.762 137.24 187.114 137.72 187.498 138.232C187.882 138.68 188.33 139.128 188.842 139.576ZM242.347 86.2H323.755V99.928H242.347V86.2ZM242.347 139V125.272H323.755V139H242.347ZM242.347 119.8V105.592H323.851V119.8H242.347ZM346.031 99.928L345.167 100.696V124.6L345.935 125.272H413.135V139H336.527C335.759 139 334.991 138.712 334.223 138.136C333.455 137.56 332.751 136.856 332.111 136.024C331.535 135.192 331.055 134.296 330.671 133.336C330.351 132.312 330.191 131.384 330.191 130.552V94.648C330.191 93.816 330.351 92.92 330.671 91.96C331.055 90.936 331.535 90.008 332.111 89.176C332.751 88.344 333.455 87.64 334.223 87.064C334.991 86.488 335.759 86.2 336.527 86.2H413.135V99.928H346.031ZM500.849 86.2V139H485.777V119.8H434.417V139H419.441V86.2H434.417V105.592H485.777V86.2H500.849ZM522.167 124.6L522.935 125.272H574.199L575.063 124.6V100.696L574.199 99.928H523.031L522.167 100.696V124.6ZM513.527 139C512.759 139 511.991 138.712 511.223 138.136C510.455 137.56 509.751 136.856 509.111 136.024C508.535 135.192 508.055 134.296 507.671 133.336C507.351 132.312 507.191 131.384 507.191 130.552V94.648C507.191 93.816 507.351 92.92 507.671 91.96C508.055 90.936 508.535 90.008 509.111 89.176C509.751 88.344 510.455 87.64 511.223 87.064C511.991 86.488 512.759 86.2 513.527 86.2H583.799C584.567 86.2 585.335 86.488 586.103 87.064C586.871 87.64 587.543 88.344 588.119 89.176C588.759 90.008 589.239 90.936 589.559 91.96C589.943 92.92 590.135 93.816 590.135 94.648V130.552C590.135 131.384 589.943 132.312 589.559 133.336C589.239 134.296 588.759 135.192 588.119 136.024C587.543 136.856 586.871 137.56 586.103 138.136C585.335 138.712 584.567 139 583.799 139H513.527Z" fill="#0E38B1"/>
<defs>
<clipPath id="clip0_186_32">
<rect width="35" height="35" fill="white" transform="matrix(-1 0 0 1 627 64)"/>
</clipPath>
</defs>
</svg>
