<svg width="146" height="22" viewBox="0 0 146 22" fill="none" xmlns="http://www.w3.org/2000/svg">
<path d="M0.72 -4.76837e-07H34.64V5.72H0.72V-4.76837e-07ZM0.72 22V16.28H34.64V22H0.72ZM0.72 14V8.08H34.68V14H0.72ZM43.9216 5.72L43.5616 6.04V16L43.8816 16.28H71.8816V22H39.9616C39.6416 22 39.3216 21.88 39.0016 21.64C38.6816 21.4 38.3882 21.1067 38.1216 20.76C37.8816 20.4133 37.6816 20.04 37.5216 19.64C37.3882 19.2133 37.3216 18.8267 37.3216 18.48V3.52C37.3216 3.17333 37.3882 2.8 37.5216 2.4C37.6816 1.97333 37.8816 1.58666 38.1216 1.24C38.3882 0.893332 38.6816 0.6 39.0016 0.36C39.3216 0.12 39.6416 -4.76837e-07 39.9616 -4.76837e-07H71.8816V5.72H43.9216ZM108.429 -4.76837e-07V22H102.149V14H80.7491V22H74.5091V-4.76837e-07H80.7491V8.08H102.149V-4.76837e-07H108.429ZM117.312 16L117.632 16.28H138.992L139.352 16V6.04L138.992 5.72H117.672L117.312 6.04V16ZM113.712 22C113.392 22 113.072 21.88 112.752 21.64C112.432 21.4 112.138 21.1067 111.872 20.76C111.632 20.4133 111.432 20.04 111.272 19.64C111.138 19.2133 111.072 18.8267 111.072 18.48V3.52C111.072 3.17333 111.138 2.8 111.272 2.4C111.432 1.97333 111.632 1.58666 111.872 1.24C112.138 0.893332 112.432 0.6 112.752 0.36C113.072 0.12 113.392 -4.76837e-07 113.712 -4.76837e-07H142.992C143.312 -4.76837e-07 143.632 0.12 143.952 0.36C144.272 0.6 144.552 0.893332 144.792 1.24C145.058 1.58666 145.258 1.97333 145.392 2.4C145.552 2.8 145.632 3.17333 145.632 3.52V18.48C145.632 18.8267 145.552 19.2133 145.392 19.64C145.258 20.04 145.058 20.4133 144.792 20.76C144.552 21.1067 144.272 21.4 143.952 21.64C143.632 21.88 143.312 22 142.992 22H113.712Z" fill="#0E38B1"/>
</svg>
